<mxfile host="app.diagrams.net" modified="2021-04-10T19:18:26.976Z" agent="5.0 (Windows NT 10.0; Win64; x64) AppleWebKit/537.36 (KHTML, like Gecko) Chrome/89.0.4389.114 Safari/537.36" etag="nZFpn9HEVnCy3d2c-qfQ" version="14.5.9" type="github">
  <diagram id="RAdTVcUG8EdyOIoYn9JB" name="Page-1">
    <mxGraphModel dx="806" dy="522" grid="1" gridSize="10" guides="1" tooltips="1" connect="1" arrows="1" fold="1" page="1" pageScale="1" pageWidth="827" pageHeight="1169" math="0" shadow="0">
      <root>
        <mxCell id="0" />
        <mxCell id="1" parent="0" />
        <mxCell id="I8eYWy2YLUBIdvMQsSt0-11" value="clientes" style="shape=table;startSize=30;container=1;collapsible=1;childLayout=tableLayout;fixedRows=1;rowLines=0;fontStyle=1;align=center;resizeLast=1;" vertex="1" parent="1">
          <mxGeometry x="20" y="40" width="180" height="160" as="geometry" />
        </mxCell>
        <mxCell id="I8eYWy2YLUBIdvMQsSt0-12" value="" style="shape=partialRectangle;collapsible=0;dropTarget=0;pointerEvents=0;fillColor=none;top=0;left=0;bottom=1;right=0;points=[[0,0.5],[1,0.5]];portConstraint=eastwest;" vertex="1" parent="I8eYWy2YLUBIdvMQsSt0-11">
          <mxGeometry y="30" width="180" height="30" as="geometry" />
        </mxCell>
        <mxCell id="I8eYWy2YLUBIdvMQsSt0-13" value="PK" style="shape=partialRectangle;connectable=0;fillColor=none;top=0;left=0;bottom=0;right=0;fontStyle=1;overflow=hidden;" vertex="1" parent="I8eYWy2YLUBIdvMQsSt0-12">
          <mxGeometry width="30" height="30" as="geometry" />
        </mxCell>
        <mxCell id="I8eYWy2YLUBIdvMQsSt0-14" value="UniqueID" style="shape=partialRectangle;connectable=0;fillColor=none;top=0;left=0;bottom=0;right=0;align=left;spacingLeft=6;fontStyle=5;overflow=hidden;" vertex="1" parent="I8eYWy2YLUBIdvMQsSt0-12">
          <mxGeometry x="30" width="150" height="30" as="geometry" />
        </mxCell>
        <mxCell id="I8eYWy2YLUBIdvMQsSt0-15" value="" style="shape=partialRectangle;collapsible=0;dropTarget=0;pointerEvents=0;fillColor=none;top=0;left=0;bottom=0;right=0;points=[[0,0.5],[1,0.5]];portConstraint=eastwest;" vertex="1" parent="I8eYWy2YLUBIdvMQsSt0-11">
          <mxGeometry y="60" width="180" height="30" as="geometry" />
        </mxCell>
        <mxCell id="I8eYWy2YLUBIdvMQsSt0-16" value="" style="shape=partialRectangle;connectable=0;fillColor=none;top=0;left=0;bottom=0;right=0;editable=1;overflow=hidden;" vertex="1" parent="I8eYWy2YLUBIdvMQsSt0-15">
          <mxGeometry width="30" height="30" as="geometry" />
        </mxCell>
        <mxCell id="I8eYWy2YLUBIdvMQsSt0-17" value="location country" style="shape=partialRectangle;connectable=0;fillColor=none;top=0;left=0;bottom=0;right=0;align=left;spacingLeft=6;overflow=hidden;" vertex="1" parent="I8eYWy2YLUBIdvMQsSt0-15">
          <mxGeometry x="30" width="150" height="30" as="geometry" />
        </mxCell>
        <mxCell id="I8eYWy2YLUBIdvMQsSt0-18" value="" style="shape=partialRectangle;collapsible=0;dropTarget=0;pointerEvents=0;fillColor=none;top=0;left=0;bottom=0;right=0;points=[[0,0.5],[1,0.5]];portConstraint=eastwest;" vertex="1" parent="I8eYWy2YLUBIdvMQsSt0-11">
          <mxGeometry y="90" width="180" height="30" as="geometry" />
        </mxCell>
        <mxCell id="I8eYWy2YLUBIdvMQsSt0-19" value="" style="shape=partialRectangle;connectable=0;fillColor=none;top=0;left=0;bottom=0;right=0;editable=1;overflow=hidden;" vertex="1" parent="I8eYWy2YLUBIdvMQsSt0-18">
          <mxGeometry width="30" height="30" as="geometry" />
        </mxCell>
        <mxCell id="I8eYWy2YLUBIdvMQsSt0-20" value="name" style="shape=partialRectangle;connectable=0;fillColor=none;top=0;left=0;bottom=0;right=0;align=left;spacingLeft=6;overflow=hidden;" vertex="1" parent="I8eYWy2YLUBIdvMQsSt0-18">
          <mxGeometry x="30" width="150" height="30" as="geometry" />
        </mxCell>
        <mxCell id="I8eYWy2YLUBIdvMQsSt0-21" value="" style="shape=partialRectangle;collapsible=0;dropTarget=0;pointerEvents=0;fillColor=none;top=0;left=0;bottom=0;right=0;points=[[0,0.5],[1,0.5]];portConstraint=eastwest;" vertex="1" parent="I8eYWy2YLUBIdvMQsSt0-11">
          <mxGeometry y="120" width="180" height="30" as="geometry" />
        </mxCell>
        <mxCell id="I8eYWy2YLUBIdvMQsSt0-22" value="" style="shape=partialRectangle;connectable=0;fillColor=none;top=0;left=0;bottom=0;right=0;editable=1;overflow=hidden;" vertex="1" parent="I8eYWy2YLUBIdvMQsSt0-21">
          <mxGeometry width="30" height="30" as="geometry" />
        </mxCell>
        <mxCell id="I8eYWy2YLUBIdvMQsSt0-23" value="Row 3" style="shape=partialRectangle;connectable=0;fillColor=none;top=0;left=0;bottom=0;right=0;align=left;spacingLeft=6;overflow=hidden;" vertex="1" parent="I8eYWy2YLUBIdvMQsSt0-21">
          <mxGeometry x="30" width="150" height="30" as="geometry" />
        </mxCell>
        <mxCell id="I8eYWy2YLUBIdvMQsSt0-24" value="order" style="shape=table;startSize=30;container=1;collapsible=1;childLayout=tableLayout;fixedRows=1;rowLines=0;fontStyle=1;align=center;resizeLast=1;" vertex="1" parent="1">
          <mxGeometry x="260" y="60" width="180" height="160" as="geometry" />
        </mxCell>
        <mxCell id="I8eYWy2YLUBIdvMQsSt0-25" value="" style="shape=partialRectangle;collapsible=0;dropTarget=0;pointerEvents=0;fillColor=none;top=0;left=0;bottom=1;right=0;points=[[0,0.5],[1,0.5]];portConstraint=eastwest;" vertex="1" parent="I8eYWy2YLUBIdvMQsSt0-24">
          <mxGeometry y="30" width="180" height="30" as="geometry" />
        </mxCell>
        <mxCell id="I8eYWy2YLUBIdvMQsSt0-26" value="PK" style="shape=partialRectangle;connectable=0;fillColor=none;top=0;left=0;bottom=0;right=0;fontStyle=1;overflow=hidden;" vertex="1" parent="I8eYWy2YLUBIdvMQsSt0-25">
          <mxGeometry width="30" height="30" as="geometry" />
        </mxCell>
        <mxCell id="I8eYWy2YLUBIdvMQsSt0-27" value="UniqueID" style="shape=partialRectangle;connectable=0;fillColor=none;top=0;left=0;bottom=0;right=0;align=left;spacingLeft=6;fontStyle=5;overflow=hidden;" vertex="1" parent="I8eYWy2YLUBIdvMQsSt0-25">
          <mxGeometry x="30" width="150" height="30" as="geometry" />
        </mxCell>
        <mxCell id="I8eYWy2YLUBIdvMQsSt0-28" value="" style="shape=partialRectangle;collapsible=0;dropTarget=0;pointerEvents=0;fillColor=none;top=0;left=0;bottom=0;right=0;points=[[0,0.5],[1,0.5]];portConstraint=eastwest;" vertex="1" parent="I8eYWy2YLUBIdvMQsSt0-24">
          <mxGeometry y="60" width="180" height="30" as="geometry" />
        </mxCell>
        <mxCell id="I8eYWy2YLUBIdvMQsSt0-29" value="" style="shape=partialRectangle;connectable=0;fillColor=none;top=0;left=0;bottom=0;right=0;editable=1;overflow=hidden;" vertex="1" parent="I8eYWy2YLUBIdvMQsSt0-28">
          <mxGeometry width="30" height="30" as="geometry" />
        </mxCell>
        <mxCell id="I8eYWy2YLUBIdvMQsSt0-30" value="Row 1" style="shape=partialRectangle;connectable=0;fillColor=none;top=0;left=0;bottom=0;right=0;align=left;spacingLeft=6;overflow=hidden;" vertex="1" parent="I8eYWy2YLUBIdvMQsSt0-28">
          <mxGeometry x="30" width="150" height="30" as="geometry" />
        </mxCell>
        <mxCell id="I8eYWy2YLUBIdvMQsSt0-31" value="" style="shape=partialRectangle;collapsible=0;dropTarget=0;pointerEvents=0;fillColor=none;top=0;left=0;bottom=0;right=0;points=[[0,0.5],[1,0.5]];portConstraint=eastwest;" vertex="1" parent="I8eYWy2YLUBIdvMQsSt0-24">
          <mxGeometry y="90" width="180" height="30" as="geometry" />
        </mxCell>
        <mxCell id="I8eYWy2YLUBIdvMQsSt0-32" value="" style="shape=partialRectangle;connectable=0;fillColor=none;top=0;left=0;bottom=0;right=0;editable=1;overflow=hidden;" vertex="1" parent="I8eYWy2YLUBIdvMQsSt0-31">
          <mxGeometry width="30" height="30" as="geometry" />
        </mxCell>
        <mxCell id="I8eYWy2YLUBIdvMQsSt0-33" value="Row 2" style="shape=partialRectangle;connectable=0;fillColor=none;top=0;left=0;bottom=0;right=0;align=left;spacingLeft=6;overflow=hidden;" vertex="1" parent="I8eYWy2YLUBIdvMQsSt0-31">
          <mxGeometry x="30" width="150" height="30" as="geometry" />
        </mxCell>
        <mxCell id="I8eYWy2YLUBIdvMQsSt0-34" value="" style="shape=partialRectangle;collapsible=0;dropTarget=0;pointerEvents=0;fillColor=none;top=0;left=0;bottom=0;right=0;points=[[0,0.5],[1,0.5]];portConstraint=eastwest;" vertex="1" parent="I8eYWy2YLUBIdvMQsSt0-24">
          <mxGeometry y="120" width="180" height="30" as="geometry" />
        </mxCell>
        <mxCell id="I8eYWy2YLUBIdvMQsSt0-35" value="" style="shape=partialRectangle;connectable=0;fillColor=none;top=0;left=0;bottom=0;right=0;editable=1;overflow=hidden;" vertex="1" parent="I8eYWy2YLUBIdvMQsSt0-34">
          <mxGeometry width="30" height="30" as="geometry" />
        </mxCell>
        <mxCell id="I8eYWy2YLUBIdvMQsSt0-36" value="Row 3" style="shape=partialRectangle;connectable=0;fillColor=none;top=0;left=0;bottom=0;right=0;align=left;spacingLeft=6;overflow=hidden;" vertex="1" parent="I8eYWy2YLUBIdvMQsSt0-34">
          <mxGeometry x="30" width="150" height="30" as="geometry" />
        </mxCell>
        <mxCell id="I8eYWy2YLUBIdvMQsSt0-37" value="delivery" style="shape=table;startSize=30;container=1;collapsible=1;childLayout=tableLayout;fixedRows=1;rowLines=0;fontStyle=1;align=center;resizeLast=1;" vertex="1" parent="1">
          <mxGeometry x="110" y="250" width="180" height="160" as="geometry" />
        </mxCell>
        <mxCell id="I8eYWy2YLUBIdvMQsSt0-38" value="" style="shape=partialRectangle;collapsible=0;dropTarget=0;pointerEvents=0;fillColor=none;top=0;left=0;bottom=1;right=0;points=[[0,0.5],[1,0.5]];portConstraint=eastwest;" vertex="1" parent="I8eYWy2YLUBIdvMQsSt0-37">
          <mxGeometry y="30" width="180" height="30" as="geometry" />
        </mxCell>
        <mxCell id="I8eYWy2YLUBIdvMQsSt0-39" value="PK" style="shape=partialRectangle;connectable=0;fillColor=none;top=0;left=0;bottom=0;right=0;fontStyle=1;overflow=hidden;" vertex="1" parent="I8eYWy2YLUBIdvMQsSt0-38">
          <mxGeometry width="30" height="30" as="geometry" />
        </mxCell>
        <mxCell id="I8eYWy2YLUBIdvMQsSt0-40" value="UniqueID" style="shape=partialRectangle;connectable=0;fillColor=none;top=0;left=0;bottom=0;right=0;align=left;spacingLeft=6;fontStyle=5;overflow=hidden;" vertex="1" parent="I8eYWy2YLUBIdvMQsSt0-38">
          <mxGeometry x="30" width="150" height="30" as="geometry" />
        </mxCell>
        <mxCell id="I8eYWy2YLUBIdvMQsSt0-41" value="" style="shape=partialRectangle;collapsible=0;dropTarget=0;pointerEvents=0;fillColor=none;top=0;left=0;bottom=0;right=0;points=[[0,0.5],[1,0.5]];portConstraint=eastwest;" vertex="1" parent="I8eYWy2YLUBIdvMQsSt0-37">
          <mxGeometry y="60" width="180" height="30" as="geometry" />
        </mxCell>
        <mxCell id="I8eYWy2YLUBIdvMQsSt0-42" value="" style="shape=partialRectangle;connectable=0;fillColor=none;top=0;left=0;bottom=0;right=0;editable=1;overflow=hidden;" vertex="1" parent="I8eYWy2YLUBIdvMQsSt0-41">
          <mxGeometry width="30" height="30" as="geometry" />
        </mxCell>
        <mxCell id="I8eYWy2YLUBIdvMQsSt0-43" value="order date" style="shape=partialRectangle;connectable=0;fillColor=none;top=0;left=0;bottom=0;right=0;align=left;spacingLeft=6;overflow=hidden;" vertex="1" parent="I8eYWy2YLUBIdvMQsSt0-41">
          <mxGeometry x="30" width="150" height="30" as="geometry" />
        </mxCell>
        <mxCell id="I8eYWy2YLUBIdvMQsSt0-44" value="" style="shape=partialRectangle;collapsible=0;dropTarget=0;pointerEvents=0;fillColor=none;top=0;left=0;bottom=0;right=0;points=[[0,0.5],[1,0.5]];portConstraint=eastwest;" vertex="1" parent="I8eYWy2YLUBIdvMQsSt0-37">
          <mxGeometry y="90" width="180" height="30" as="geometry" />
        </mxCell>
        <mxCell id="I8eYWy2YLUBIdvMQsSt0-45" value="" style="shape=partialRectangle;connectable=0;fillColor=none;top=0;left=0;bottom=0;right=0;editable=1;overflow=hidden;" vertex="1" parent="I8eYWy2YLUBIdvMQsSt0-44">
          <mxGeometry width="30" height="30" as="geometry" />
        </mxCell>
        <mxCell id="I8eYWy2YLUBIdvMQsSt0-46" value="delivery date" style="shape=partialRectangle;connectable=0;fillColor=none;top=0;left=0;bottom=0;right=0;align=left;spacingLeft=6;overflow=hidden;" vertex="1" parent="I8eYWy2YLUBIdvMQsSt0-44">
          <mxGeometry x="30" width="150" height="30" as="geometry" />
        </mxCell>
        <mxCell id="I8eYWy2YLUBIdvMQsSt0-47" value="" style="shape=partialRectangle;collapsible=0;dropTarget=0;pointerEvents=0;fillColor=none;top=0;left=0;bottom=0;right=0;points=[[0,0.5],[1,0.5]];portConstraint=eastwest;" vertex="1" parent="I8eYWy2YLUBIdvMQsSt0-37">
          <mxGeometry y="120" width="180" height="30" as="geometry" />
        </mxCell>
        <mxCell id="I8eYWy2YLUBIdvMQsSt0-48" value="" style="shape=partialRectangle;connectable=0;fillColor=none;top=0;left=0;bottom=0;right=0;editable=1;overflow=hidden;" vertex="1" parent="I8eYWy2YLUBIdvMQsSt0-47">
          <mxGeometry width="30" height="30" as="geometry" />
        </mxCell>
        <mxCell id="I8eYWy2YLUBIdvMQsSt0-49" value="Row 3" style="shape=partialRectangle;connectable=0;fillColor=none;top=0;left=0;bottom=0;right=0;align=left;spacingLeft=6;overflow=hidden;" vertex="1" parent="I8eYWy2YLUBIdvMQsSt0-47">
          <mxGeometry x="30" width="150" height="30" as="geometry" />
        </mxCell>
        <mxCell id="I8eYWy2YLUBIdvMQsSt0-54" value="equipos" style="shape=table;startSize=30;container=1;collapsible=1;childLayout=tableLayout;fixedRows=1;rowLines=0;fontStyle=1;align=center;resizeLast=1;" vertex="1" parent="1">
          <mxGeometry x="470" y="70" width="180" height="160" as="geometry" />
        </mxCell>
        <mxCell id="I8eYWy2YLUBIdvMQsSt0-55" value="" style="shape=partialRectangle;collapsible=0;dropTarget=0;pointerEvents=0;fillColor=none;top=0;left=0;bottom=1;right=0;points=[[0,0.5],[1,0.5]];portConstraint=eastwest;" vertex="1" parent="I8eYWy2YLUBIdvMQsSt0-54">
          <mxGeometry y="30" width="180" height="30" as="geometry" />
        </mxCell>
        <mxCell id="I8eYWy2YLUBIdvMQsSt0-56" value="PK" style="shape=partialRectangle;connectable=0;fillColor=none;top=0;left=0;bottom=0;right=0;fontStyle=1;overflow=hidden;" vertex="1" parent="I8eYWy2YLUBIdvMQsSt0-55">
          <mxGeometry width="30" height="30" as="geometry" />
        </mxCell>
        <mxCell id="I8eYWy2YLUBIdvMQsSt0-57" value="UniqueID" style="shape=partialRectangle;connectable=0;fillColor=none;top=0;left=0;bottom=0;right=0;align=left;spacingLeft=6;fontStyle=5;overflow=hidden;" vertex="1" parent="I8eYWy2YLUBIdvMQsSt0-55">
          <mxGeometry x="30" width="150" height="30" as="geometry" />
        </mxCell>
        <mxCell id="I8eYWy2YLUBIdvMQsSt0-58" value="" style="shape=partialRectangle;collapsible=0;dropTarget=0;pointerEvents=0;fillColor=none;top=0;left=0;bottom=0;right=0;points=[[0,0.5],[1,0.5]];portConstraint=eastwest;" vertex="1" parent="I8eYWy2YLUBIdvMQsSt0-54">
          <mxGeometry y="60" width="180" height="30" as="geometry" />
        </mxCell>
        <mxCell id="I8eYWy2YLUBIdvMQsSt0-59" value="" style="shape=partialRectangle;connectable=0;fillColor=none;top=0;left=0;bottom=0;right=0;editable=1;overflow=hidden;" vertex="1" parent="I8eYWy2YLUBIdvMQsSt0-58">
          <mxGeometry width="30" height="30" as="geometry" />
        </mxCell>
        <mxCell id="I8eYWy2YLUBIdvMQsSt0-60" value="Row 1" style="shape=partialRectangle;connectable=0;fillColor=none;top=0;left=0;bottom=0;right=0;align=left;spacingLeft=6;overflow=hidden;" vertex="1" parent="I8eYWy2YLUBIdvMQsSt0-58">
          <mxGeometry x="30" width="150" height="30" as="geometry" />
        </mxCell>
        <mxCell id="I8eYWy2YLUBIdvMQsSt0-61" value="" style="shape=partialRectangle;collapsible=0;dropTarget=0;pointerEvents=0;fillColor=none;top=0;left=0;bottom=0;right=0;points=[[0,0.5],[1,0.5]];portConstraint=eastwest;" vertex="1" parent="I8eYWy2YLUBIdvMQsSt0-54">
          <mxGeometry y="90" width="180" height="30" as="geometry" />
        </mxCell>
        <mxCell id="I8eYWy2YLUBIdvMQsSt0-62" value="" style="shape=partialRectangle;connectable=0;fillColor=none;top=0;left=0;bottom=0;right=0;editable=1;overflow=hidden;" vertex="1" parent="I8eYWy2YLUBIdvMQsSt0-61">
          <mxGeometry width="30" height="30" as="geometry" />
        </mxCell>
        <mxCell id="I8eYWy2YLUBIdvMQsSt0-63" value="Row 2" style="shape=partialRectangle;connectable=0;fillColor=none;top=0;left=0;bottom=0;right=0;align=left;spacingLeft=6;overflow=hidden;" vertex="1" parent="I8eYWy2YLUBIdvMQsSt0-61">
          <mxGeometry x="30" width="150" height="30" as="geometry" />
        </mxCell>
        <mxCell id="I8eYWy2YLUBIdvMQsSt0-64" value="" style="shape=partialRectangle;collapsible=0;dropTarget=0;pointerEvents=0;fillColor=none;top=0;left=0;bottom=0;right=0;points=[[0,0.5],[1,0.5]];portConstraint=eastwest;" vertex="1" parent="I8eYWy2YLUBIdvMQsSt0-54">
          <mxGeometry y="120" width="180" height="30" as="geometry" />
        </mxCell>
        <mxCell id="I8eYWy2YLUBIdvMQsSt0-65" value="" style="shape=partialRectangle;connectable=0;fillColor=none;top=0;left=0;bottom=0;right=0;editable=1;overflow=hidden;" vertex="1" parent="I8eYWy2YLUBIdvMQsSt0-64">
          <mxGeometry width="30" height="30" as="geometry" />
        </mxCell>
        <mxCell id="I8eYWy2YLUBIdvMQsSt0-66" value="Row 3" style="shape=partialRectangle;connectable=0;fillColor=none;top=0;left=0;bottom=0;right=0;align=left;spacingLeft=6;overflow=hidden;" vertex="1" parent="I8eYWy2YLUBIdvMQsSt0-64">
          <mxGeometry x="30" width="150" height="30" as="geometry" />
        </mxCell>
        <mxCell id="I8eYWy2YLUBIdvMQsSt0-67" value="electric accesories" style="shape=table;startSize=30;container=1;collapsible=1;childLayout=tableLayout;fixedRows=1;rowLines=0;fontStyle=1;align=center;resizeLast=1;" vertex="1" parent="1">
          <mxGeometry x="470" y="240" width="180" height="160" as="geometry" />
        </mxCell>
        <mxCell id="I8eYWy2YLUBIdvMQsSt0-68" value="" style="shape=partialRectangle;collapsible=0;dropTarget=0;pointerEvents=0;fillColor=none;top=0;left=0;bottom=1;right=0;points=[[0,0.5],[1,0.5]];portConstraint=eastwest;" vertex="1" parent="I8eYWy2YLUBIdvMQsSt0-67">
          <mxGeometry y="30" width="180" height="30" as="geometry" />
        </mxCell>
        <mxCell id="I8eYWy2YLUBIdvMQsSt0-69" value="PK" style="shape=partialRectangle;connectable=0;fillColor=none;top=0;left=0;bottom=0;right=0;fontStyle=1;overflow=hidden;" vertex="1" parent="I8eYWy2YLUBIdvMQsSt0-68">
          <mxGeometry width="30" height="30" as="geometry" />
        </mxCell>
        <mxCell id="I8eYWy2YLUBIdvMQsSt0-70" value="UniqueID" style="shape=partialRectangle;connectable=0;fillColor=none;top=0;left=0;bottom=0;right=0;align=left;spacingLeft=6;fontStyle=5;overflow=hidden;" vertex="1" parent="I8eYWy2YLUBIdvMQsSt0-68">
          <mxGeometry x="30" width="150" height="30" as="geometry" />
        </mxCell>
        <mxCell id="I8eYWy2YLUBIdvMQsSt0-71" value="" style="shape=partialRectangle;collapsible=0;dropTarget=0;pointerEvents=0;fillColor=none;top=0;left=0;bottom=0;right=0;points=[[0,0.5],[1,0.5]];portConstraint=eastwest;" vertex="1" parent="I8eYWy2YLUBIdvMQsSt0-67">
          <mxGeometry y="60" width="180" height="30" as="geometry" />
        </mxCell>
        <mxCell id="I8eYWy2YLUBIdvMQsSt0-72" value="" style="shape=partialRectangle;connectable=0;fillColor=none;top=0;left=0;bottom=0;right=0;editable=1;overflow=hidden;" vertex="1" parent="I8eYWy2YLUBIdvMQsSt0-71">
          <mxGeometry width="30" height="30" as="geometry" />
        </mxCell>
        <mxCell id="I8eYWy2YLUBIdvMQsSt0-73" value="Row 1" style="shape=partialRectangle;connectable=0;fillColor=none;top=0;left=0;bottom=0;right=0;align=left;spacingLeft=6;overflow=hidden;" vertex="1" parent="I8eYWy2YLUBIdvMQsSt0-71">
          <mxGeometry x="30" width="150" height="30" as="geometry" />
        </mxCell>
        <mxCell id="I8eYWy2YLUBIdvMQsSt0-74" value="" style="shape=partialRectangle;collapsible=0;dropTarget=0;pointerEvents=0;fillColor=none;top=0;left=0;bottom=0;right=0;points=[[0,0.5],[1,0.5]];portConstraint=eastwest;" vertex="1" parent="I8eYWy2YLUBIdvMQsSt0-67">
          <mxGeometry y="90" width="180" height="30" as="geometry" />
        </mxCell>
        <mxCell id="I8eYWy2YLUBIdvMQsSt0-75" value="" style="shape=partialRectangle;connectable=0;fillColor=none;top=0;left=0;bottom=0;right=0;editable=1;overflow=hidden;" vertex="1" parent="I8eYWy2YLUBIdvMQsSt0-74">
          <mxGeometry width="30" height="30" as="geometry" />
        </mxCell>
        <mxCell id="I8eYWy2YLUBIdvMQsSt0-76" value="Row 2" style="shape=partialRectangle;connectable=0;fillColor=none;top=0;left=0;bottom=0;right=0;align=left;spacingLeft=6;overflow=hidden;" vertex="1" parent="I8eYWy2YLUBIdvMQsSt0-74">
          <mxGeometry x="30" width="150" height="30" as="geometry" />
        </mxCell>
        <mxCell id="I8eYWy2YLUBIdvMQsSt0-77" value="" style="shape=partialRectangle;collapsible=0;dropTarget=0;pointerEvents=0;fillColor=none;top=0;left=0;bottom=0;right=0;points=[[0,0.5],[1,0.5]];portConstraint=eastwest;" vertex="1" parent="I8eYWy2YLUBIdvMQsSt0-67">
          <mxGeometry y="120" width="180" height="30" as="geometry" />
        </mxCell>
        <mxCell id="I8eYWy2YLUBIdvMQsSt0-78" value="" style="shape=partialRectangle;connectable=0;fillColor=none;top=0;left=0;bottom=0;right=0;editable=1;overflow=hidden;" vertex="1" parent="I8eYWy2YLUBIdvMQsSt0-77">
          <mxGeometry width="30" height="30" as="geometry" />
        </mxCell>
        <mxCell id="I8eYWy2YLUBIdvMQsSt0-79" value="Row 3" style="shape=partialRectangle;connectable=0;fillColor=none;top=0;left=0;bottom=0;right=0;align=left;spacingLeft=6;overflow=hidden;" vertex="1" parent="I8eYWy2YLUBIdvMQsSt0-77">
          <mxGeometry x="30" width="150" height="30" as="geometry" />
        </mxCell>
        <mxCell id="I8eYWy2YLUBIdvMQsSt0-80" value="non electric accessories" style="shape=table;startSize=30;container=1;collapsible=1;childLayout=tableLayout;fixedRows=1;rowLines=0;fontStyle=1;align=center;resizeLast=1;" vertex="1" parent="1">
          <mxGeometry x="470" y="410" width="180" height="160" as="geometry" />
        </mxCell>
        <mxCell id="I8eYWy2YLUBIdvMQsSt0-81" value="" style="shape=partialRectangle;collapsible=0;dropTarget=0;pointerEvents=0;fillColor=none;top=0;left=0;bottom=1;right=0;points=[[0,0.5],[1,0.5]];portConstraint=eastwest;" vertex="1" parent="I8eYWy2YLUBIdvMQsSt0-80">
          <mxGeometry y="30" width="180" height="30" as="geometry" />
        </mxCell>
        <mxCell id="I8eYWy2YLUBIdvMQsSt0-82" value="PK" style="shape=partialRectangle;connectable=0;fillColor=none;top=0;left=0;bottom=0;right=0;fontStyle=1;overflow=hidden;" vertex="1" parent="I8eYWy2YLUBIdvMQsSt0-81">
          <mxGeometry width="30" height="30" as="geometry" />
        </mxCell>
        <mxCell id="I8eYWy2YLUBIdvMQsSt0-83" value="UniqueID" style="shape=partialRectangle;connectable=0;fillColor=none;top=0;left=0;bottom=0;right=0;align=left;spacingLeft=6;fontStyle=5;overflow=hidden;" vertex="1" parent="I8eYWy2YLUBIdvMQsSt0-81">
          <mxGeometry x="30" width="150" height="30" as="geometry" />
        </mxCell>
        <mxCell id="I8eYWy2YLUBIdvMQsSt0-84" value="" style="shape=partialRectangle;collapsible=0;dropTarget=0;pointerEvents=0;fillColor=none;top=0;left=0;bottom=0;right=0;points=[[0,0.5],[1,0.5]];portConstraint=eastwest;" vertex="1" parent="I8eYWy2YLUBIdvMQsSt0-80">
          <mxGeometry y="60" width="180" height="30" as="geometry" />
        </mxCell>
        <mxCell id="I8eYWy2YLUBIdvMQsSt0-85" value="" style="shape=partialRectangle;connectable=0;fillColor=none;top=0;left=0;bottom=0;right=0;editable=1;overflow=hidden;" vertex="1" parent="I8eYWy2YLUBIdvMQsSt0-84">
          <mxGeometry width="30" height="30" as="geometry" />
        </mxCell>
        <mxCell id="I8eYWy2YLUBIdvMQsSt0-86" value="Row 1" style="shape=partialRectangle;connectable=0;fillColor=none;top=0;left=0;bottom=0;right=0;align=left;spacingLeft=6;overflow=hidden;" vertex="1" parent="I8eYWy2YLUBIdvMQsSt0-84">
          <mxGeometry x="30" width="150" height="30" as="geometry" />
        </mxCell>
        <mxCell id="I8eYWy2YLUBIdvMQsSt0-87" value="" style="shape=partialRectangle;collapsible=0;dropTarget=0;pointerEvents=0;fillColor=none;top=0;left=0;bottom=0;right=0;points=[[0,0.5],[1,0.5]];portConstraint=eastwest;" vertex="1" parent="I8eYWy2YLUBIdvMQsSt0-80">
          <mxGeometry y="90" width="180" height="30" as="geometry" />
        </mxCell>
        <mxCell id="I8eYWy2YLUBIdvMQsSt0-88" value="" style="shape=partialRectangle;connectable=0;fillColor=none;top=0;left=0;bottom=0;right=0;editable=1;overflow=hidden;" vertex="1" parent="I8eYWy2YLUBIdvMQsSt0-87">
          <mxGeometry width="30" height="30" as="geometry" />
        </mxCell>
        <mxCell id="I8eYWy2YLUBIdvMQsSt0-89" value="Row 2" style="shape=partialRectangle;connectable=0;fillColor=none;top=0;left=0;bottom=0;right=0;align=left;spacingLeft=6;overflow=hidden;" vertex="1" parent="I8eYWy2YLUBIdvMQsSt0-87">
          <mxGeometry x="30" width="150" height="30" as="geometry" />
        </mxCell>
        <mxCell id="I8eYWy2YLUBIdvMQsSt0-90" value="" style="shape=partialRectangle;collapsible=0;dropTarget=0;pointerEvents=0;fillColor=none;top=0;left=0;bottom=0;right=0;points=[[0,0.5],[1,0.5]];portConstraint=eastwest;" vertex="1" parent="I8eYWy2YLUBIdvMQsSt0-80">
          <mxGeometry y="120" width="180" height="30" as="geometry" />
        </mxCell>
        <mxCell id="I8eYWy2YLUBIdvMQsSt0-91" value="" style="shape=partialRectangle;connectable=0;fillColor=none;top=0;left=0;bottom=0;right=0;editable=1;overflow=hidden;" vertex="1" parent="I8eYWy2YLUBIdvMQsSt0-90">
          <mxGeometry width="30" height="30" as="geometry" />
        </mxCell>
        <mxCell id="I8eYWy2YLUBIdvMQsSt0-92" value="Row 3" style="shape=partialRectangle;connectable=0;fillColor=none;top=0;left=0;bottom=0;right=0;align=left;spacingLeft=6;overflow=hidden;" vertex="1" parent="I8eYWy2YLUBIdvMQsSt0-90">
          <mxGeometry x="30" width="150" height="30" as="geometry" />
        </mxCell>
        <mxCell id="I8eYWy2YLUBIdvMQsSt0-93" value="componentes" style="shape=table;startSize=30;container=1;collapsible=1;childLayout=tableLayout;fixedRows=1;rowLines=0;fontStyle=1;align=center;resizeLast=1;" vertex="1" parent="1">
          <mxGeometry x="160" y="480" width="180" height="160" as="geometry" />
        </mxCell>
        <mxCell id="I8eYWy2YLUBIdvMQsSt0-94" value="" style="shape=partialRectangle;collapsible=0;dropTarget=0;pointerEvents=0;fillColor=none;top=0;left=0;bottom=1;right=0;points=[[0,0.5],[1,0.5]];portConstraint=eastwest;" vertex="1" parent="I8eYWy2YLUBIdvMQsSt0-93">
          <mxGeometry y="30" width="180" height="30" as="geometry" />
        </mxCell>
        <mxCell id="I8eYWy2YLUBIdvMQsSt0-95" value="PK" style="shape=partialRectangle;connectable=0;fillColor=none;top=0;left=0;bottom=0;right=0;fontStyle=1;overflow=hidden;" vertex="1" parent="I8eYWy2YLUBIdvMQsSt0-94">
          <mxGeometry width="30" height="30" as="geometry" />
        </mxCell>
        <mxCell id="I8eYWy2YLUBIdvMQsSt0-96" value="UniqueID" style="shape=partialRectangle;connectable=0;fillColor=none;top=0;left=0;bottom=0;right=0;align=left;spacingLeft=6;fontStyle=5;overflow=hidden;" vertex="1" parent="I8eYWy2YLUBIdvMQsSt0-94">
          <mxGeometry x="30" width="150" height="30" as="geometry" />
        </mxCell>
        <mxCell id="I8eYWy2YLUBIdvMQsSt0-97" value="" style="shape=partialRectangle;collapsible=0;dropTarget=0;pointerEvents=0;fillColor=none;top=0;left=0;bottom=0;right=0;points=[[0,0.5],[1,0.5]];portConstraint=eastwest;" vertex="1" parent="I8eYWy2YLUBIdvMQsSt0-93">
          <mxGeometry y="60" width="180" height="30" as="geometry" />
        </mxCell>
        <mxCell id="I8eYWy2YLUBIdvMQsSt0-98" value="" style="shape=partialRectangle;connectable=0;fillColor=none;top=0;left=0;bottom=0;right=0;editable=1;overflow=hidden;" vertex="1" parent="I8eYWy2YLUBIdvMQsSt0-97">
          <mxGeometry width="30" height="30" as="geometry" />
        </mxCell>
        <mxCell id="I8eYWy2YLUBIdvMQsSt0-99" value="Row 1" style="shape=partialRectangle;connectable=0;fillColor=none;top=0;left=0;bottom=0;right=0;align=left;spacingLeft=6;overflow=hidden;" vertex="1" parent="I8eYWy2YLUBIdvMQsSt0-97">
          <mxGeometry x="30" width="150" height="30" as="geometry" />
        </mxCell>
        <mxCell id="I8eYWy2YLUBIdvMQsSt0-100" value="" style="shape=partialRectangle;collapsible=0;dropTarget=0;pointerEvents=0;fillColor=none;top=0;left=0;bottom=0;right=0;points=[[0,0.5],[1,0.5]];portConstraint=eastwest;" vertex="1" parent="I8eYWy2YLUBIdvMQsSt0-93">
          <mxGeometry y="90" width="180" height="30" as="geometry" />
        </mxCell>
        <mxCell id="I8eYWy2YLUBIdvMQsSt0-101" value="" style="shape=partialRectangle;connectable=0;fillColor=none;top=0;left=0;bottom=0;right=0;editable=1;overflow=hidden;" vertex="1" parent="I8eYWy2YLUBIdvMQsSt0-100">
          <mxGeometry width="30" height="30" as="geometry" />
        </mxCell>
        <mxCell id="I8eYWy2YLUBIdvMQsSt0-102" value="Row 2" style="shape=partialRectangle;connectable=0;fillColor=none;top=0;left=0;bottom=0;right=0;align=left;spacingLeft=6;overflow=hidden;" vertex="1" parent="I8eYWy2YLUBIdvMQsSt0-100">
          <mxGeometry x="30" width="150" height="30" as="geometry" />
        </mxCell>
        <mxCell id="I8eYWy2YLUBIdvMQsSt0-103" value="" style="shape=partialRectangle;collapsible=0;dropTarget=0;pointerEvents=0;fillColor=none;top=0;left=0;bottom=0;right=0;points=[[0,0.5],[1,0.5]];portConstraint=eastwest;" vertex="1" parent="I8eYWy2YLUBIdvMQsSt0-93">
          <mxGeometry y="120" width="180" height="30" as="geometry" />
        </mxCell>
        <mxCell id="I8eYWy2YLUBIdvMQsSt0-104" value="" style="shape=partialRectangle;connectable=0;fillColor=none;top=0;left=0;bottom=0;right=0;editable=1;overflow=hidden;" vertex="1" parent="I8eYWy2YLUBIdvMQsSt0-103">
          <mxGeometry width="30" height="30" as="geometry" />
        </mxCell>
        <mxCell id="I8eYWy2YLUBIdvMQsSt0-105" value="Row 3" style="shape=partialRectangle;connectable=0;fillColor=none;top=0;left=0;bottom=0;right=0;align=left;spacingLeft=6;overflow=hidden;" vertex="1" parent="I8eYWy2YLUBIdvMQsSt0-103">
          <mxGeometry x="30" width="150" height="30" as="geometry" />
        </mxCell>
      </root>
    </mxGraphModel>
  </diagram>
</mxfile>
